<svg width="24.96" height="23.96" viewBox="0 0 25 24" fill="none" xmlns="http://www.w3.org/2000/svg">
<path d="M24.9337 14.5617C24.427 16.6704 23.3415 18.6106 21.79 20.1806C20.2384 21.7506 18.2774 22.8933 16.1104 23.49C13.9435 24.0868 11.6497 24.1158 9.46713 23.574C7.28457 23.0322 5.29287 21.9395 3.69882 20.4092C2.10476 18.8789 0.966463 16.9669 0.402114 14.8716C-0.162234 12.7764 -0.132059 10.5743 0.489507 8.49406C1.11107 6.41379 2.30137 4.53117 3.9368 3.04168C5.57224 1.55218 7.5932 0.510102 9.78984 0.0236475C9.95021 -0.0117009 10.1173 -0.0073595 10.2754 0.0362643C10.4336 0.0798881 10.5776 0.161364 10.694 0.273049C10.8103 0.384733 10.8952 0.522964 10.9407 0.674774C10.9862 0.826584 10.9907 0.986995 10.9539 1.14096C10.5489 2.83606 10.5991 4.60215 11.0996 6.27357C11.6002 7.94498 12.5348 9.46694 13.8158 10.6967C15.0968 11.9264 16.6822 12.8237 18.4232 13.3042C20.1643 13.7848 22.0039 13.8329 23.7697 13.4441C23.9301 13.4088 24.0972 13.4132 24.2553 13.4568C24.4135 13.5005 24.5575 13.582 24.6738 13.6937C24.7902 13.8054 24.8751 13.9436 24.9205 14.0954C24.966 14.2473 24.9705 14.4077 24.9337 14.5617Z" fill="black"/>
</svg>
