<svg width="30" height="30" viewBox="0 0 30 30" fill="#fff" xmlns="http://www.w3.org/2000/svg">
<path d="M24.4444 15C24.4444 16.8679 23.8905 18.6939 22.8528 20.2471C21.815 21.8002 20.34 23.0107 18.6142 23.7255C16.8885 24.4404 14.9895 24.6274 13.1575 24.263C11.3254 23.8986 9.6426 22.9991 8.32177 21.6782C7.00094 20.3574 6.10144 18.6746 5.73703 16.8425C5.37261 15.0105 5.55964 13.1115 6.27447 11.3858C6.9893 9.66002 8.19982 8.185 9.75295 7.14723C11.3061 6.10946 13.1321 5.55556 15 5.55556C17.504 5.5584 19.9045 6.55435 21.6751 8.32491C23.4457 10.0955 24.4416 12.496 24.4444 15ZM15 3.33333C15.1459 3.33333 15.2904 3.3046 15.4252 3.24876C15.56 3.19292 15.6825 3.11108 15.7857 3.0079C15.8889 2.90472 15.9707 2.78223 16.0265 2.64743C16.0824 2.51262 16.1111 2.36814 16.1111 2.22222V1.11111C16.1111 0.816426 15.9941 0.533811 15.7857 0.325437C15.5773 0.117063 15.2947 0 15 0C14.7053 0 14.4227 0.117063 14.2143 0.325437C14.006 0.533811 13.8889 0.816426 13.8889 1.11111V2.22222C13.8889 2.36814 13.9176 2.51262 13.9735 2.64743C14.0293 2.78223 14.1111 2.90472 14.2143 3.0079C14.3175 3.11108 14.44 3.19292 14.5748 3.24876C14.7096 3.3046 14.8541 3.33333 15 3.33333ZM5.17904 6.75042C5.28215 6.85386 5.40465 6.93595 5.53953 6.992C5.6744 7.04806 5.819 7.07697 5.96506 7.07709C6.11112 7.0772 6.25576 7.04852 6.39073 6.99268C6.52569 6.93684 6.64832 6.85494 6.7516 6.75167C6.85488 6.64839 6.93678 6.52576 6.99263 6.3908C7.04847 6.25584 7.07716 6.1112 7.07705 5.96514C7.07694 5.81908 7.04804 5.67448 6.99199 5.5396C6.93594 5.40473 6.85385 5.28223 6.75042 5.1791L5.96476 4.39341C5.86165 4.28993 5.73915 4.2078 5.60427 4.15172C5.46939 4.09564 5.32477 4.06671 5.17869 4.06657C5.03261 4.06644 4.88794 4.09512 4.75296 4.15096C4.61798 4.2068 4.49533 4.28871 4.39204 4.392C4.28875 4.4953 4.20684 4.61794 4.151 4.75293C4.09516 4.88791 4.06648 5.03258 4.06661 5.17865C4.06674 5.32473 4.09568 5.46935 4.15176 5.60423C4.20784 5.73912 4.28997 5.86162 4.39345 5.96472L5.17904 6.75042ZM2.22222 13.8889H1.11111C0.816426 13.8889 0.533811 14.006 0.325437 14.2143C0.117063 14.4227 0 14.7053 0 15C0 15.2947 0.117063 15.5773 0.325437 15.7857C0.533811 15.9941 0.816426 16.1111 1.11111 16.1111H2.22222C2.51691 16.1111 2.79952 15.9941 3.0079 15.7857C3.21627 15.5773 3.33333 15.2947 3.33333 15C3.33333 14.7053 3.21627 14.4227 3.0079 14.2143C2.79952 14.006 2.51691 13.8889 2.22222 13.8889ZM5.1791 23.2496L4.39345 24.0352C4.29017 24.1384 4.20822 24.2609 4.1523 24.3957C4.09638 24.5305 4.06757 24.6751 4.06752 24.821C4.06748 24.967 4.09619 25.1116 4.15203 25.2464C4.20787 25.3813 4.28974 25.5038 4.39295 25.6071C4.49617 25.7103 4.61871 25.7921 4.75358 25.848C4.88844 25.9038 5.03299 25.9325 5.17896 25.9325C5.32493 25.9324 5.46946 25.9036 5.60429 25.8477C5.73912 25.7918 5.86161 25.7098 5.96476 25.6066L6.75042 24.8209C6.95857 24.6125 7.07545 24.3299 7.07536 24.0354C7.07527 23.7408 6.95821 23.4584 6.74993 23.2501C6.54165 23.0418 6.25918 22.9247 5.96462 22.9246C5.67006 22.9246 5.38752 23.0414 5.1791 23.2496ZM15 26.6667C14.8541 26.6667 14.7096 26.6954 14.5748 26.7512C14.44 26.8071 14.3175 26.8889 14.2143 26.9921C14.1111 27.0953 14.0293 27.2178 13.9735 27.3526C13.9176 27.4874 13.8889 27.6319 13.8889 27.7778V28.8889C13.8889 29.1836 14.006 29.4662 14.2143 29.6746C14.4227 29.8829 14.7053 30 15 30C15.2947 30 15.5773 29.8829 15.7857 29.6746C15.9941 29.4662 16.1111 29.1836 16.1111 28.8889V27.7778C16.1111 27.6319 16.0824 27.4874 16.0265 27.3526C15.9707 27.2178 15.8889 27.0953 15.7857 26.9921C15.6825 26.8889 15.56 26.8071 15.4252 26.7512C15.2904 26.6954 15.1459 26.6667 15 26.6667ZM24.8209 23.2496C24.6124 23.042 24.33 22.9257 24.0358 22.926C23.7416 22.9264 23.4595 23.0434 23.2515 23.2515C23.0434 23.4595 22.9264 23.7416 22.926 24.0358C22.9257 24.33 23.042 24.6124 23.2496 24.8209L24.0352 25.6066C24.2437 25.8147 24.5262 25.9316 24.8208 25.9315C25.1153 25.9314 25.3978 25.8143 25.6061 25.6061C25.8144 25.3978 25.9314 25.1153 25.9315 24.8208C25.9316 24.5262 25.8147 24.2437 25.6066 24.0352L24.8209 23.2496ZM28.8889 13.8889H27.7778C27.4831 13.8889 27.2005 14.006 26.9921 14.2143C26.7837 14.4227 26.6667 14.7053 26.6667 15C26.6667 15.2947 26.7837 15.5773 26.9921 15.7857C27.2005 15.9941 27.4831 16.1111 27.7778 16.1111H28.8889C29.1836 16.1111 29.4662 15.9941 29.6746 15.7857C29.8829 15.5773 30 15.2947 30 15C30 14.7053 29.8829 14.4227 29.6746 14.2143C29.4662 14.006 29.1836 13.8889 28.8889 13.8889ZM24.0352 7.07587C24.1812 7.07605 24.3257 7.04739 24.4606 6.99154C24.5954 6.93569 24.7179 6.85375 24.821 6.75042L25.6066 5.96473C25.7097 5.86155 25.7916 5.73907 25.8474 5.60426C25.9032 5.46946 25.932 5.32498 25.932 5.17907C25.932 5.03316 25.9032 4.88868 25.8474 4.75387C25.7916 4.61907 25.7097 4.49658 25.6066 4.39341C25.5034 4.29024 25.3809 4.20839 25.2461 4.15256C25.1113 4.09672 24.9668 4.06798 24.8209 4.06798C24.675 4.06798 24.5305 4.09672 24.3957 4.15256C24.2609 4.20839 24.1384 4.29024 24.0352 4.39341L23.2496 5.17911C23.0942 5.33449 22.9884 5.53247 22.9455 5.74801C22.9026 5.96354 22.9246 6.18695 23.0087 6.38997C23.0928 6.593 23.2352 6.76653 23.4179 6.88862C23.6007 7.01071 23.8155 7.07588 24.0352 7.07587V7.07587Z" fill="#F1F3CE"/>
</svg>
